<svg width="251" height="100" viewBox="0 0 251 100" fill="none" xmlns="http://www.w3.org/2000/svg">
<g filter="url(#filter0_d_1_35)">
<rect x="10" y="10" width="80" height="80" rx="15" fill="#00B846"/>
</g>
<g filter="url(#filter1_d_1_35)">
<path d="M45.4411 56.3981L40.7381 47.3031M45.4411 56.3981C29.9947 48.0194 4.58693 28.9736 26.5269 19.8207C48.4669 10.6678 48.2781 40.3919 45.4411 56.3981ZM29.229 25.0461L31.4863 29.4115L33.7437 33.7769M40.7381 47.3031L43.4299 39.5531M40.7381 47.3031L32.2152 44.5114M40.7381 47.3031L37.0506 40.1721M37.0506 40.1721L38.9821 35.0747M37.0506 40.1721L31.6498 38.6841M37.0506 40.1721L33.7437 33.7769M33.7437 33.7769L35.2983 31.0422M33.7437 33.7769L31.1602 33.6387" stroke="white"/>
<path d="M46.0899 54.8221L53.0163 47.2814M46.0899 54.8221C63.1946 50.7938 92.7122 39.0888 73.9459 24.4955C55.1796 9.9022 47.556 38.6327 46.0899 54.8221ZM69.9665 28.8279L63.3174 36.0667M53.0163 47.2814L52.4542 39.0965M53.0163 47.2814L61.9732 46.8258M53.0163 47.2814L58.4471 41.369M58.4471 41.369L57.922 35.9433M58.4471 41.369L64.0491 41.3515M58.4471 41.369L63.3174 36.0667M63.3174 36.0667L62.5355 33.0197M63.3174 36.0667L65.8465 36.6118" stroke="white"/>
<path d="M46.4941 54.1408V82.5425" stroke="white" stroke-width="1.5" stroke-linecap="round"/>
</g>
<path d="M111.264 57.492L117.6 41.868C117.96 40.98 118.212 40.284 118.356 39.78C118.5 39.276 118.572 38.82 118.572 38.412C118.572 37.764 118.368 37.308 117.96 37.044C117.576 36.78 116.844 36.648 115.764 36.648V35.28H124.512V36.648C123.96 36.72 123.48 36.816 123.072 36.936C122.688 37.056 122.34 37.224 122.028 37.44C121.74 37.656 121.476 37.944 121.236 38.304C121.02 38.64 120.804 39.06 120.588 39.564L110.832 63.36H109.572L100.284 40.932C99.972 40.212 99.66 39.588 99.348 39.06C99.06 38.532 98.736 38.1 98.376 37.764C98.016 37.428 97.608 37.176 97.152 37.008C96.696 36.84 96.156 36.732 95.532 36.684V35.28H107.268V36.684C106.596 36.684 106.044 36.72 105.612 36.792C105.204 36.84 104.88 36.936 104.64 37.08C104.4 37.2 104.232 37.356 104.136 37.548C104.04 37.74 103.992 37.956 103.992 38.196C103.992 38.532 104.052 38.928 104.172 39.384C104.292 39.816 104.52 40.452 104.856 41.292L111.264 57.492ZM139.999 59.652C137.959 62.124 135.427 63.36 132.403 63.36C130.987 63.36 129.703 63.132 128.551 62.676C127.399 62.196 126.403 61.536 125.563 60.696C124.747 59.832 124.111 58.812 123.655 57.636C123.199 56.436 122.971 55.116 122.971 53.676C122.971 52.212 123.211 50.856 123.691 49.608C124.171 48.36 124.843 47.292 125.707 46.404C126.595 45.516 127.639 44.82 128.839 44.316C130.063 43.812 131.395 43.56 132.835 43.56C135.163 43.56 136.963 44.196 138.235 45.468C139.507 46.716 140.143 48.516 140.143 50.868C140.143 51.204 140.071 51.408 139.927 51.48C139.807 51.552 139.507 51.588 139.027 51.588H127.183C127.135 51.78 127.099 52.02 127.075 52.308C127.051 52.572 127.039 52.872 127.039 53.208C127.039 54.456 127.183 55.596 127.471 56.628C127.783 57.636 128.215 58.5 128.767 59.22C129.343 59.94 130.015 60.504 130.783 60.912C131.575 61.296 132.451 61.488 133.411 61.488C134.419 61.488 135.355 61.272 136.219 60.84C137.083 60.384 137.971 59.652 138.883 58.644L139.999 59.652ZM134.059 49.932C134.539 49.932 134.923 49.92 135.211 49.896C135.499 49.872 135.715 49.824 135.859 49.752C136.003 49.68 136.099 49.584 136.147 49.464C136.195 49.32 136.219 49.14 136.219 48.924C136.219 47.82 135.859 46.944 135.139 46.296C134.443 45.624 133.483 45.288 132.259 45.288C129.667 45.288 128.059 46.836 127.435 49.932H134.059ZM149.836 57.276C149.836 58.26 149.86 59.04 149.908 59.616C149.956 60.192 150.076 60.636 150.268 60.948C150.484 61.236 150.784 61.428 151.168 61.524C151.552 61.62 152.092 61.692 152.788 61.74V63H143.212V61.74C143.908 61.716 144.46 61.656 144.868 61.56C145.276 61.44 145.588 61.236 145.804 60.948C146.02 60.66 146.152 60.252 146.2 59.724C146.272 59.172 146.308 58.44 146.308 57.528V53.316C146.308 51.684 146.284 50.412 146.236 49.5C146.212 48.588 146.092 47.916 145.876 47.484C145.684 47.052 145.372 46.8 144.94 46.728C144.508 46.632 143.908 46.584 143.14 46.584V45.324L149.44 43.956L149.944 48.42H150.088C150.4 47.7 150.784 47.04 151.24 46.44C151.72 45.84 152.236 45.336 152.788 44.928C153.34 44.496 153.916 44.16 154.516 43.92C155.116 43.68 155.728 43.56 156.352 43.56C157.12 43.56 157.72 43.752 158.152 44.136C158.608 44.496 158.836 44.988 158.836 45.612C158.836 46.188 158.656 46.644 158.296 46.98C157.936 47.292 157.42 47.448 156.748 47.448C156.364 47.448 156.04 47.4 155.776 47.304C155.512 47.208 155.272 47.112 155.056 47.016C154.864 46.896 154.672 46.788 154.48 46.692C154.312 46.596 154.12 46.548 153.904 46.548C153.256 46.548 152.608 46.968 151.96 47.808C151.312 48.624 150.808 49.668 150.448 50.94C150.256 51.636 150.1 52.428 149.98 53.316C149.884 54.18 149.836 55.092 149.836 56.052V57.276ZM176.072 59.976H175.928C175.064 61.2 174.14 62.076 173.156 62.604C172.196 63.108 171.056 63.36 169.736 63.36C168.368 63.36 167.108 63.12 165.956 62.64C164.828 62.136 163.844 61.452 163.004 60.588C162.188 59.7 161.54 58.644 161.06 57.42C160.604 56.196 160.376 54.864 160.376 53.424C160.376 52.008 160.604 50.7 161.06 49.5C161.54 48.276 162.188 47.232 163.004 46.368C163.844 45.48 164.84 44.796 165.992 44.316C167.144 43.812 168.392 43.56 169.736 43.56C170.888 43.56 171.908 43.752 172.796 44.136C173.708 44.52 174.584 45.132 175.424 45.972V42.3C175.424 40.932 175.4 39.792 175.352 38.88C175.328 37.968 175.28 37.344 175.208 37.008C175.088 36.48 174.752 36.108 174.2 35.892C173.648 35.676 172.748 35.568 171.5 35.568V34.488L178.88 33.12V53.892C178.88 55.548 178.892 56.916 178.916 57.996C178.94 59.052 179.012 59.808 179.132 60.264C179.204 60.552 179.288 60.792 179.384 60.984C179.504 61.176 179.66 61.332 179.852 61.452C180.068 61.548 180.344 61.62 180.68 61.668C181.04 61.716 181.496 61.74 182.048 61.74V62.964L176.072 63.36V59.976ZM175.352 52.02C175.352 50.772 175.28 49.824 175.136 49.176C175.016 48.528 174.764 47.964 174.38 47.484C173.828 46.764 173.12 46.224 172.256 45.864C171.416 45.48 170.576 45.288 169.736 45.288C168.008 45.288 166.688 46.008 165.776 47.448C164.888 48.864 164.444 50.796 164.444 53.244C164.444 54.516 164.552 55.668 164.768 56.7C165.008 57.732 165.344 58.62 165.776 59.364C166.232 60.084 166.784 60.648 167.432 61.056C168.104 61.44 168.872 61.632 169.736 61.632C170.168 61.632 170.6 61.584 171.032 61.488C171.488 61.392 171.92 61.248 172.328 61.056C172.76 60.84 173.156 60.6 173.516 60.336C173.876 60.048 174.176 59.724 174.416 59.364C174.752 58.836 174.992 58.2 175.136 57.456C175.28 56.712 175.352 55.692 175.352 54.396V52.02ZM195.505 52.344C194.137 52.872 192.973 53.388 192.013 53.892C191.077 54.396 190.321 54.9 189.745 55.404C189.169 55.908 188.749 56.412 188.485 56.916C188.245 57.42 188.125 57.936 188.125 58.464C188.125 59.256 188.389 59.904 188.917 60.408C189.445 60.912 190.141 61.164 191.005 61.164C191.629 61.164 192.205 61.008 192.733 60.696C193.285 60.384 193.765 59.964 194.173 59.436C194.581 58.884 194.905 58.248 195.145 57.528C195.385 56.784 195.505 56.004 195.505 55.188V52.344ZM195.505 50.796V49.32C195.505 46.392 194.257 44.928 191.761 44.928C191.353 44.928 191.005 44.964 190.717 45.036C190.429 45.108 190.189 45.228 189.997 45.396C189.805 45.564 189.625 45.804 189.457 46.116C189.313 46.428 189.169 46.812 189.025 47.268C188.761 47.964 188.497 48.432 188.233 48.672C187.993 48.888 187.633 48.996 187.153 48.996C185.953 48.996 185.353 48.396 185.353 47.196C185.353 46.044 185.965 45.156 187.189 44.532C188.413 43.884 190.153 43.56 192.409 43.56C194.809 43.56 196.513 43.992 197.521 44.856C198.529 45.696 199.033 47.136 199.033 49.176V57.24C199.033 59.976 199.573 61.344 200.653 61.344C200.989 61.344 201.313 61.308 201.625 61.236C201.937 61.14 202.201 60.912 202.417 60.552L202.921 61.416C202.633 61.968 202.105 62.436 201.337 62.82C200.569 63.18 199.765 63.36 198.925 63.36C197.869 63.36 197.077 63.024 196.549 62.352C196.045 61.68 195.793 60.732 195.793 59.508H195.613C194.989 60.684 194.125 61.62 193.021 62.316C191.917 62.988 190.693 63.324 189.349 63.324C187.837 63.324 186.649 62.94 185.785 62.172C184.921 61.404 184.489 60.372 184.489 59.076C184.489 58.5 184.585 57.948 184.777 57.42C184.993 56.892 185.329 56.388 185.785 55.908C186.241 55.428 186.841 54.96 187.585 54.504C188.329 54.024 189.241 53.544 190.321 53.064L195.505 50.796ZM210.651 57.348C210.651 58.332 210.675 59.112 210.723 59.688C210.771 60.24 210.891 60.672 211.083 60.984C211.299 61.272 211.599 61.464 211.983 61.56C212.391 61.656 212.943 61.728 213.639 61.776V63H204.207V61.776C204.879 61.728 205.407 61.656 205.791 61.56C206.199 61.464 206.511 61.272 206.727 60.984C206.943 60.696 207.075 60.288 207.123 59.76C207.195 59.232 207.231 58.512 207.231 57.6V52.812C207.231 49.956 207.159 48.216 207.015 47.592C206.943 47.28 206.847 47.028 206.727 46.836C206.631 46.62 206.475 46.464 206.259 46.368C206.043 46.248 205.767 46.176 205.431 46.152C205.095 46.104 204.663 46.08 204.135 46.08V44.928L209.895 43.56L210.327 47.124H210.471C211.383 45.996 212.451 45.12 213.675 44.496C214.899 43.872 216.231 43.56 217.671 43.56C218.775 43.56 219.783 43.74 220.695 44.1C221.607 44.46 222.303 44.952 222.783 45.576C223.191 46.128 223.479 46.848 223.647 47.736C223.815 48.6 223.899 49.8 223.899 51.336V57.348C223.899 58.332 223.923 59.112 223.971 59.688C224.043 60.24 224.175 60.672 224.367 60.984C224.559 61.272 224.847 61.464 225.231 61.56C225.639 61.656 226.167 61.728 226.815 61.776V63H217.491V61.776C218.163 61.752 218.691 61.692 219.075 61.596C219.483 61.476 219.783 61.272 219.975 60.984C220.191 60.696 220.323 60.288 220.371 59.76C220.443 59.208 220.479 58.488 220.479 57.6V52.848C220.479 51.48 220.407 50.328 220.263 49.392C220.119 48.456 219.879 47.7 219.543 47.124C219.231 46.548 218.811 46.14 218.283 45.9C217.755 45.636 217.119 45.504 216.375 45.504C215.295 45.504 214.299 45.792 213.387 46.368C212.499 46.92 211.803 47.688 211.299 48.672C211.179 48.912 211.071 49.14 210.975 49.356C210.903 49.572 210.843 49.824 210.795 50.112C210.747 50.4 210.711 50.736 210.687 51.12C210.663 51.48 210.651 51.948 210.651 52.524V57.348ZM229.135 46.188V44.856C230.407 44.112 231.403 43.368 232.123 42.624C232.843 41.88 233.395 40.992 233.779 39.96H234.823V44.496H239.647V46.188H234.823V57.132C234.823 57.972 234.859 58.68 234.931 59.256C235.027 59.832 235.171 60.3 235.363 60.66C235.555 60.996 235.807 61.236 236.119 61.38C236.431 61.524 236.827 61.596 237.307 61.596C237.907 61.596 238.411 61.476 238.819 61.236C239.251 60.972 239.671 60.54 240.079 59.94L240.979 60.624C240.643 61.512 240.055 62.196 239.215 62.676C238.399 63.132 237.379 63.36 236.155 63.36C234.571 63.36 233.359 62.988 232.519 62.244C231.703 61.476 231.295 60.384 231.295 58.968V46.188H229.135Z" fill="#00B846"/>
<defs>
<filter id="filter0_d_1_35" x="9.4" y="9.4" width="89.2" height="89.2" filterUnits="userSpaceOnUse" color-interpolation-filters="sRGB">
<feFlood flood-opacity="0" result="BackgroundImageFix"/>
<feColorMatrix in="SourceAlpha" type="matrix" values="0 0 0 0 0 0 0 0 0 0 0 0 0 0 0 0 0 0 127 0" result="hardAlpha"/>
<feOffset dx="4" dy="4"/>
<feGaussianBlur stdDeviation="2.3"/>
<feComposite in2="hardAlpha" operator="out"/>
<feColorMatrix type="matrix" values="0 0 0 0 0 0 0 0 0 0 0 0 0 0 0 0 0 0 0.25 0"/>
<feBlend mode="normal" in2="BackgroundImageFix" result="effect1_dropShadow_1_35"/>
<feBlend mode="normal" in="SourceGraphic" in2="effect1_dropShadow_1_35" result="shape"/>
</filter>
<filter id="filter1_d_1_35" x="17.3752" y="17.6064" width="67.1968" height="70.7861" filterUnits="userSpaceOnUse" color-interpolation-filters="sRGB">
<feFlood flood-opacity="0" result="BackgroundImageFix"/>
<feColorMatrix in="SourceAlpha" type="matrix" values="0 0 0 0 0 0 0 0 0 0 0 0 0 0 0 0 0 0 127 0" result="hardAlpha"/>
<feOffset dx="2" dy="3"/>
<feGaussianBlur stdDeviation="1.05"/>
<feComposite in2="hardAlpha" operator="out"/>
<feColorMatrix type="matrix" values="0 0 0 0 0 0 0 0 0 0 0 0 0 0 0 0 0 0 0.25 0"/>
<feBlend mode="normal" in2="BackgroundImageFix" result="effect1_dropShadow_1_35"/>
<feBlend mode="normal" in="SourceGraphic" in2="effect1_dropShadow_1_35" result="shape"/>
</filter>
</defs>
</svg>
